<!DOCTYPE svg PUBLIC "-//W3C//DTD SVG 1.1//EN" "http://www.w3.org/Graphics/SVG/1.1/DTD/svg11.dtd">
<!-- Uploaded to: SVG Repo, www.svgrepo.com, Transformed by: SVG Repo Mixer Tools -->
<svg height="800px" width="800px" version="1.1" id="Layer_1" xmlns="http://www.w3.org/2000/svg" xmlns:xlink="http://www.w3.org/1999/xlink" viewBox="0 0 512 512" xml:space="preserve" fill="#000000">
<g id="SVGRepo_bgCarrier" stroke-width="0"/>
<g id="SVGRepo_tracerCarrier" stroke-linecap="round" stroke-linejoin="round"/>
<g id="SVGRepo_iconCarrier"> <polyline style="fill:#88ccdd;" points="391.88,167.399 8.153,167.399 8.153,455.467 503.847,455.467 503.847,167.399 419.056,167.399 "/> <circle style="fill:#E8BB51;" cx="256" cy="79.616" r="23.1"/> <path d="M180,220.16c0-4.503-3.649-8.153-8.153-8.153s-8.153,3.65-8.153,8.153v42.47c0,7.419-6.036,13.454-13.454,13.454 c-7.419,0-13.455-6.035-13.455-13.454c0-4.503-3.649-8.153-8.153-8.153c-4.504,0-8.153,3.65-8.153,8.153 c0,16.41,13.35,29.76,29.761,29.76c16.41,0,29.76-13.35,29.76-29.76V220.16z"/> <path d="M254.232,262.629V220.16c0-4.503-3.649-8.153-8.153-8.153c-4.504,0-8.153,3.65-8.153,8.153v42.47 c0,7.419-6.036,13.454-13.455,13.454c-7.418,0-13.454-6.035-13.454-13.454v-42.47c0-4.503-3.649-8.153-8.153-8.153 s-8.153,3.65-8.153,8.153v42.47c0,16.41,13.35,29.76,29.761,29.76C240.882,292.391,254.232,279.04,254.232,262.629z"/> <path d="M353.607,228.313v55.924c0,4.503,3.649,8.153,8.153,8.153s8.153-3.65,8.153-8.153v-55.924h13.454 c4.504,0,8.153-3.65,8.153-8.153c0-4.503-3.649-8.153-8.153-8.153h-43.215c-4.504,0-8.153,3.65-8.153,8.153 c0,4.503,3.649,8.153,8.153,8.153H353.607z"/> <path d="M287.901,228.313h27.196c4.504,0,8.153-3.65,8.153-8.153c0-4.503-3.649-8.153-8.153-8.153h-27.196 c-13.328,0-24.172,10.843-24.172,24.172s10.844,24.173,24.172,24.173h11.176c4.337,0,7.866,3.529,7.866,7.866 c0,4.337-3.529,7.867-7.866,7.867h-27.196c-4.504,0-8.153,3.65-8.153,8.153c0,4.503,3.649,8.153,8.153,8.153h27.196 c13.328,0,24.172-10.844,24.172-24.173c0-13.328-10.844-24.172-24.172-24.172h-11.176c-4.337,0-7.866-3.53-7.866-7.867 C280.035,231.842,283.562,228.313,287.901,228.313z"/> <path d="M101.004,410.859c4.504,0,8.153-3.65,8.153-8.153v-64.077c0-3.367-2.069-6.386-5.209-7.603 c-3.139-1.214-6.703-0.376-8.97,2.112l-24.522,26.914l-24.522-26.915c-2.265-2.488-5.829-3.326-8.97-2.112 c-3.14,1.216-5.209,4.236-5.209,7.603v64.077c0,4.503,3.649,8.153,8.153,8.153s8.153-3.65,8.153-8.153v-43.024l16.37,17.966 c1.545,1.696,3.733,2.662,6.027,2.662c2.294,0,4.482-0.966,6.027-2.662l16.369-17.966v43.023 C92.851,407.209,96.501,410.859,101.004,410.859z"/> <path d="M352.702,338.629v64.077c0,4.503,3.649,8.153,8.153,8.153h43.216c4.504,0,8.153-3.65,8.153-8.153 c0-4.503-3.649-8.153-8.153-8.153h-35.063v-15.733h11.965c4.504,0,8.153-3.65,8.153-8.153c0-4.503-3.649-8.153-8.153-8.153h-11.965 v-15.733h35.063c4.504,0,8.153-3.65,8.153-8.153s-3.649-8.153-8.153-8.153h-43.216C356.351,330.476,352.702,334.126,352.702,338.629 z"/> <path d="M445.019,410.859c19.423,0,35.226-15.802,35.226-35.227v-9.93c0-19.423-15.802-35.226-35.226-35.226h-16.143 c-4.504,0-8.153,3.65-8.153,8.153v64.077c0,4.503,3.649,8.153,8.153,8.153H445.019z M437.03,346.782h7.99 c10.434,0,18.92,8.488,18.92,18.92v9.93c0,10.434-8.488,18.921-18.92,18.921h-7.99V346.782z"/> <path d="M323.558,338.629v64.077c0,4.503,3.649,8.153,8.153,8.153c4.504,0,8.153-3.65,8.153-8.153v-64.077 c0-4.503-3.649-8.153-8.153-8.153C327.207,330.476,323.558,334.126,323.558,338.629z"/> <path d="M242.235,354.648c0-13.328-10.844-24.172-24.172-24.172h-27.196c-4.504,0-8.153,3.65-8.153,8.153v64.077 c0,4.503,3.649,8.153,8.153,8.153s8.153-3.65,8.153-8.153v-20.789l15.53,5.087c6.806,2.23,11.379,8.539,11.379,15.701 c0,4.503,3.649,8.153,8.153,8.153s8.153-3.65,8.153-8.153c0-10.666-5.104-20.381-13.355-26.444 C236.792,372.286,242.235,364.091,242.235,354.648z M218.063,362.515H199.02v-15.733h19.043c4.337,0,7.866,3.529,7.866,7.866 S222.4,362.515,218.063,362.515z"/> <path d="M310.921,354.648c0-13.328-10.844-24.172-24.172-24.172h-27.195c-4.504,0-8.153,3.65-8.153,8.153v64.077 c0,4.503,3.649,8.153,8.153,8.153c4.504,0,8.153-3.65,8.153-8.153v-20.789l15.53,5.087c6.806,2.23,11.379,8.539,11.379,15.701 c0,4.503,3.649,8.153,8.153,8.153c4.504,0,8.153-3.65,8.153-8.153c0-10.666-5.104-20.381-13.355-26.444 C305.479,372.286,310.921,364.091,310.921,354.648z M286.749,362.515h-19.042v-15.733h19.043c4.337,0,7.866,3.529,7.866,7.866 S291.087,362.515,286.749,362.515z"/> <path d="M169.459,382.827l-15.782-46.803c-1.117-3.315-4.226-5.548-7.725-5.548s-6.607,2.233-7.725,5.548l-15.795,46.84l0,0 l-5.812,17.237c-1.439,4.267,0.853,8.892,5.12,10.33s8.892-0.853,10.33-5.12l4.003-11.869h19.759l4.003,11.869 c1.148,3.402,4.321,5.549,7.723,5.549c0.864,0,1.744-0.138,2.606-0.429c4.267-1.439,6.559-6.065,5.12-10.33l-5.808-17.223 C169.471,382.86,169.465,382.844,169.459,382.827z M141.572,377.136l4.381-12.991l4.381,12.991H141.572z"/> <path d="M503.847,159.246h-84.791c-4.504,0-8.153,3.65-8.153,8.153c0,4.503,3.649,8.153,8.153,8.153h76.638v271.762H16.306v-59.244 c0-4.503-3.649-8.153-8.153-8.153S0,383.567,0,388.069v67.397c0,4.503,3.649,8.153,8.153,8.153h495.694 c4.504,0,8.153-3.65,8.153-8.153V167.398C512,162.896,508.351,159.246,503.847,159.246z"/> <path d="M8.153,369.046c4.504,0,8.153-3.65,8.153-8.153V175.551H391.88c4.504,0,8.153-3.65,8.153-8.153 c0-4.503-3.649-8.153-8.153-8.153h-44.723l-64.06-64.06c6.855-11.94,5.194-27.474-4.997-37.665 c-12.188-12.186-32.015-12.187-44.198,0c-5.904,5.903-9.154,13.75-9.154,22.099c0,5.556,1.447,10.886,4.149,15.572l-64.053,64.054 H8.153c-4.504,0-8.153,3.65-8.153,8.153v193.495C0,365.397,3.649,369.046,8.153,369.046z M245.431,69.051 c2.914-2.914,6.741-4.371,10.569-4.371c3.828,0,7.656,1.458,10.569,4.371c5.828,5.828,5.828,15.31,0,21.138 c-5.827,5.827-15.302,5.828-21.133,0.005c-0.001-0.001-0.003-0.003-0.004-0.005c-0.002-0.001-0.004-0.003-0.005-0.005 c-2.82-2.823-4.372-6.573-4.372-10.564C241.053,75.628,242.608,71.874,245.431,69.051z M240.433,106.716 c4.801,2.757,10.182,4.142,15.567,4.142c5.384,0,10.764-1.385,15.567-4.142l52.529,52.531H187.904L240.433,106.716z"/> </g>
</svg>